<svg width="168" height="26" viewBox="0 0 168 26" fill="none" xmlns="http://www.w3.org/2000/svg">
<text x="2" y="18" font-family="Arial, sans-serif" font-size="14" font-weight="600" fill="#F2F2F2">Uptrender</text>
<path d="M154.137 26C156.898 26 159.184 23.7425 158.673 21.0288C158.353 19.3274 157.868 17.6594 157.223 16.0502C155.96 12.8958 154.109 10.0295 151.774 7.61522C149.44 5.2009 146.669 3.28575 143.619 1.97913C142.114 1.33406 140.555 0.843538 138.965 0.512196C136.262 -0.0511821 134 2.23858 134 5V21C134 23.7614 136.239 26 139 26H154.137Z" fill="#615DFF"/>
<path d="M147.701 26C144.94 26 142.654 23.7425 143.165 21.0288C143.485 19.3274 143.97 17.6594 144.615 16.0502C145.878 12.8958 147.73 10.0295 150.064 7.61522C152.398 5.2009 155.169 3.28575 158.219 1.97913C159.724 1.33406 161.283 0.843538 162.873 0.512196C165.577 -0.0511821 167.838 2.23858 167.838 5V21C167.838 23.7614 165.6 26 162.838 26H147.701Z" fill="#3DD9EB"/>
</svg>
