<svg width="168" height="26" viewBox="0 0 168 26" fill="none" xmlns="http://www.w3.org/2000/svg">
<text x="2" y="18" font-family="Arial, sans-serif" font-size="14" font-weight="600" fill="#333333">Uptrender</text>
<path d="M153.838 26C156.6 26 158.885 23.7425 158.374 21.0288C158.054 19.3274 157.569 17.6594 156.925 16.0502C155.661 12.8958 153.81 10.0295 151.476 7.61522C149.142 5.2009 146.37 3.28575 143.321 1.97913C141.815 1.33406 140.256 0.843538 138.666 0.512196C135.963 -0.0511821 133.701 2.23858 133.701 5V21C133.701 23.7614 135.94 26 138.701 26H153.838Z" fill="#615DFF"/>
<path d="M147.403 26C144.641 26 142.355 23.7425 142.866 21.0288C143.187 19.3274 143.672 17.6594 144.316 16.0502C145.579 12.8958 147.431 10.0295 149.765 7.61522C152.099 5.2009 154.87 3.28575 157.92 1.97913C159.426 1.33406 160.985 0.843538 162.575 0.512196C165.278 -0.0511821 167.539 2.23858 167.539 5V21C167.539 23.7614 165.301 26 162.539 26H147.403Z" fill="#3DD9EB"/>
</svg>
