<svg width="174" height="26" viewBox="0 0 174 26" fill="none" xmlns="http://www.w3.org/2000/svg">
<path d="M46.0268 23V5.12H49.3968V11.84H49.8408L56.2968 5.12H60.7388L53.5768 12.632L60.8828 23H56.3688L50.9608 15.176L49.3968 16.784V23H46.0268ZM63.7269 23V5.12H67.0969V13.064H67.4709L74.0709 5.12H78.0629L71.1909 13.328L78.3909 23H74.4869L68.9829 16.64L67.0969 18.464V23H63.7269ZM85.3166 23.288C84.0526 23.288 82.9246 22.992 81.9326 22.4C80.9406 21.792 80.1566 20.968 79.5806 19.928C79.0046 18.888 78.7166 17.736 78.7166 16.472C78.7166 15.192 79.0046 14.04 79.5806 13.016C80.1566 11.992 80.9406 11.176 81.9326 10.568C82.9406 9.96 84.0606 9.656 85.2926 9.656C86.2846 9.656 87.1646 9.856 87.9326 10.256C88.7166 10.64 89.3326 11.184 89.7806 11.888L89.3006 12.536V4.832H92.4446V23H89.4686V20.48L89.8046 21.104C89.3566 21.808 88.7326 22.352 87.9326 22.736C87.1326 23.104 86.2606 23.288 85.3166 23.288ZM85.6526 20.408C86.3726 20.408 87.0046 20.24 87.5486 19.904C88.0926 19.568 88.5166 19.104 88.8206 18.512C89.1406 17.92 89.3006 17.24 89.3006 16.472C89.3006 15.72 89.1406 15.048 88.8206 14.456C88.5166 13.848 88.0926 13.376 87.5486 13.04C87.0046 12.704 86.3726 12.536 85.6526 12.536C84.9486 12.536 84.3166 12.712 83.7566 13.064C83.1966 13.4 82.7566 13.864 82.4366 14.456C82.1326 15.032 81.9806 15.704 81.9806 16.472C81.9806 17.24 82.1326 17.92 82.4366 18.512C82.7566 19.104 83.1966 19.568 83.7566 19.904C84.3166 20.24 84.9486 20.408 85.6526 20.408ZM95.2163 23V9.944H98.3603V12.512L98.1203 12.056C98.4243 11.272 98.9203 10.68 99.6083 10.28C100.312 9.864 101.128 9.656 102.056 9.656C103.016 9.656 103.864 9.864 104.6 10.28C105.352 10.696 105.936 11.28 106.352 12.032C106.768 12.768 106.976 13.624 106.976 14.6V23H103.832V15.344C103.832 14.768 103.72 14.272 103.496 13.856C103.272 13.44 102.96 13.12 102.56 12.896C102.176 12.656 101.72 12.536 101.192 12.536C100.68 12.536 100.224 12.656 99.8243 12.896C99.4243 13.12 99.1123 13.44 98.8883 13.856C98.6643 14.272 98.5523 14.768 98.5523 15.344V23H95.2163ZM115.562 23.288C114.218 23.288 113.042 22.984 112.034 22.376C111.026 21.768 110.242 20.944 109.682 19.904C109.122 18.864 108.842 17.712 108.842 16.448C108.842 15.136 109.122 13.976 109.682 12.968C110.258 11.944 111.034 11.136 112.01 10.544C113.002 9.952 114.106 9.656 115.322 9.656C116.346 9.656 117.242 9.824 118.01 10.16C118.794 10.496 119.458 10.96 120.002 11.552C120.546 12.144 120.962 12.824 121.25 13.592C121.538 14.344 121.682 15.16 121.682 16.04C121.682 16.264 121.666 16.496 121.634 16.736C121.618 16.976 121.578 17.184 121.514 17.36H111.434V14.96H119.738L118.25 16.088C118.394 15.352 118.354 14.696 118.13 14.12C117.922 13.544 117.57 13.088 117.074 12.752C116.594 12.416 116.01 12.248 115.322 12.248C114.666 12.248 114.082 12.416 113.57 12.752C113.058 13.072 112.666 13.552 112.394 14.192C112.138 14.816 112.042 15.576 112.106 16.472C112.042 17.272 112.146 17.984 112.418 18.608C112.706 19.216 113.122 19.688 113.666 20.024C114.226 20.36 114.866 20.528 115.586 20.528C116.306 20.528 116.914 20.376 117.41 20.072C117.922 19.768 118.322 19.36 118.61 18.848L121.154 20.096C120.898 20.72 120.498 21.272 119.954 21.752C119.41 22.232 118.762 22.608 118.01 22.88C117.274 23.152 116.458 23.288 115.562 23.288ZM123.065 23V9.944H126.209V23H123.065ZM123.065 8.48V5.12H126.209V8.48H123.065ZM138.718 23V9.944H141.862V12.512L141.622 12.056C141.926 11.272 142.422 10.68 143.11 10.28C143.814 9.864 144.63 9.656 145.558 9.656C146.518 9.656 147.366 9.864 148.102 10.28C148.854 10.696 149.438 11.28 149.854 12.032C150.27 12.768 150.478 13.624 150.478 14.6V23H147.334V15.344C147.334 14.768 147.222 14.272 146.998 13.856C146.774 13.44 146.462 13.12 146.062 12.896C145.678 12.656 145.222 12.536 144.694 12.536C144.182 12.536 143.726 12.656 143.326 12.896C142.926 13.12 142.614 13.44 142.39 13.856C142.166 14.272 142.054 14.768 142.054 15.344V23H138.718ZM159.362 23.288C158.018 23.288 156.842 22.984 155.834 22.376C154.826 21.768 154.042 20.944 153.482 19.904C152.922 18.864 152.642 17.712 152.642 16.448C152.642 15.136 152.922 13.976 153.482 12.968C154.058 11.944 154.834 11.136 155.81 10.544C156.802 9.952 157.906 9.656 159.122 9.656C160.146 9.656 161.042 9.824 161.81 10.16C162.594 10.496 163.258 10.96 163.802 11.552C164.346 12.144 164.762 12.824 165.05 13.592C165.338 14.344 165.482 15.16 165.482 16.04C165.482 16.264 165.466 16.496 165.434 16.736C165.418 16.976 165.378 17.184 165.314 17.36H155.234V14.96H163.538L162.05 16.088C162.194 15.352 162.154 14.696 161.93 14.12C161.722 13.544 161.37 13.088 160.874 12.752C160.394 12.416 159.81 12.248 159.122 12.248C158.466 12.248 157.882 12.416 157.37 12.752C156.858 13.072 156.466 13.552 156.194 14.192C155.938 14.816 155.842 15.576 155.906 16.472C155.842 17.272 155.946 17.984 156.218 18.608C156.506 19.216 156.922 19.688 157.466 20.024C158.026 20.36 158.666 20.528 159.386 20.528C160.106 20.528 160.714 20.376 161.21 20.072C161.722 19.768 162.122 19.36 162.41 18.848L164.954 20.096C164.698 20.72 164.298 21.272 163.754 21.752C163.21 22.232 162.562 22.608 161.81 22.88C161.074 23.152 160.258 23.288 159.362 23.288Z" fill="#11142D"/>
<path d="M20.1369 26C22.8983 26 25.1842 23.7425 24.6732 21.0288C24.3528 19.3274 23.8679 17.6594 23.2235 16.0502C21.9602 12.8958 20.1087 10.0295 17.7745 7.61522C15.4403 5.2009 12.6692 3.28575 9.61949 1.97913C8.11383 1.33406 6.55481 0.843538 4.96489 0.512196C2.26154 -0.0511821 0 2.23858 0 5V21C0 23.7614 2.23858 26 5 26H20.1369Z" fill="#615DFF"/>
<g style="mix-blend-mode:multiply">
<path d="M13.7013 26C10.9399 26 8.65395 23.7425 9.16502 21.0288C9.48544 19.3274 9.97031 17.6594 10.6147 16.0502C11.878 12.8958 13.7295 10.0295 16.0637 7.61522C18.3979 5.2009 21.169 3.28575 24.2187 1.97913C25.7244 1.33406 27.2834 0.843538 28.8733 0.512196C31.5767 -0.0511821 33.8382 2.23858 33.8382 5V21C33.8382 23.7614 31.5996 26 28.8382 26H13.7013Z" fill="#3DD9EB"/>
</g>
</svg>